<svg id="svg" version="1.1" xmlns="http://www.w3.org/2000/svg" xmlns:xlink="http://www.w3.org/1999/xlink" width="400" height="400" viewBox="0, 0, 400,400"><g id="svgg"><path id="path0" d="M296.000 72.000 C 295.622 72.245,278.239 72.390,248.924 72.394 C 218.377 72.398,202.362 72.537,202.200 72.800 C 202.058 73.031,199.929 73.200,197.176 73.200 L 192.400 73.200 192.400 92.400 L 192.400 111.600 196.976 111.600 C 199.596 111.600,201.658 111.429,201.800 111.200 C 201.962 110.937,217.183 110.800,246.159 110.800 C 270.421 110.800,293.541 110.682,297.536 110.537 L 304.800 110.274 304.800 90.937 L 304.800 71.600 300.700 71.606 C 298.445 71.609,296.330 71.787,296.000 72.000 M142.800 73.800 C 142.800 74.130,142.510 74.400,142.155 74.400 C 141.636 74.400,141.562 74.671,141.774 75.800 C 141.947 76.724,141.884 77.200,141.587 77.200 C 141.317 77.200,141.187 77.764,141.261 78.620 C 141.334 79.465,141.175 80.168,140.868 80.358 C 140.537 80.563,140.448 81.052,140.619 81.734 C 140.815 82.513,140.713 82.859,140.233 83.043 C 139.732 83.235,139.640 83.605,139.835 84.646 C 140.011 85.586,139.939 86.000,139.599 86.000 C 139.279 86.000,139.172 86.429,139.291 87.237 C 139.413 88.070,139.286 88.546,138.902 88.693 C 138.490 88.851,138.402 89.284,138.584 90.256 C 138.788 91.342,138.709 91.600,138.174 91.600 C 137.636 91.600,137.559 91.858,137.768 92.969 C 137.924 93.801,137.853 94.444,137.586 94.608 C 137.345 94.757,137.204 95.409,137.271 96.056 C 137.343 96.741,137.165 97.375,136.843 97.573 C 136.494 97.789,136.381 98.269,136.534 98.879 C 136.704 99.557,136.541 100.044,135.984 100.521 C 135.306 101.101,135.265 101.321,135.696 102.052 C 136.099 102.733,136.099 102.941,135.700 103.086 C 135.425 103.185,135.200 103.882,135.200 104.633 C 135.200 105.385,135.000 106.000,134.755 106.000 C 134.464 106.000,134.401 106.482,134.574 107.400 C 134.775 108.473,134.702 108.800,134.261 108.800 C 133.569 108.800,132.975 110.125,133.577 110.326 C 134.115 110.505,134.135 112.000,133.600 112.000 C 133.380 112.000,133.200 112.630,133.200 113.400 C 133.200 114.170,133.000 114.800,132.755 114.800 C 132.464 114.800,132.401 115.282,132.574 116.200 C 132.776 117.281,132.703 117.600,132.251 117.600 C 131.466 117.600,131.227 118.438,131.763 119.312 C 132.094 119.852,132.067 120.107,131.648 120.368 C 131.291 120.590,131.163 121.165,131.284 121.993 C 131.411 122.856,131.291 123.344,130.916 123.488 C 130.530 123.636,130.436 124.055,130.611 124.851 C 130.798 125.699,130.696 126.065,130.222 126.247 C 129.733 126.435,129.641 126.812,129.835 127.846 C 130.000 128.725,129.933 129.200,129.645 129.200 C 129.400 129.200,129.200 129.830,129.200 130.600 C 129.200 131.370,129.000 132.000,128.755 132.000 C 128.464 132.000,128.401 132.482,128.574 133.400 C 128.775 134.473,128.702 134.800,128.261 134.800 C 127.944 134.800,127.582 135.070,127.455 135.400 C 127.329 135.730,127.399 136.000,127.613 136.000 C 128.124 136.000,128.113 137.483,127.600 137.800 C 127.380 137.936,127.200 138.667,127.200 139.424 C 127.200 140.181,127.012 140.800,126.782 140.800 C 126.521 140.800,126.462 141.325,126.626 142.200 C 126.841 143.342,126.767 143.600,126.226 143.600 C 125.686 143.600,125.612 143.858,125.826 145.000 C 125.999 145.918,125.936 146.400,125.645 146.400 C 125.400 146.400,125.200 147.030,125.200 147.800 C 125.200 148.570,125.000 149.200,124.755 149.200 C 124.464 149.200,124.401 149.682,124.574 150.600 C 124.784 151.723,124.711 152.000,124.200 152.000 C 123.694 152.000,123.616 152.276,123.818 153.354 C 123.971 154.170,123.899 154.815,123.636 154.978 C 123.396 155.126,123.200 155.867,123.200 156.624 C 123.200 157.381,123.000 158.000,122.755 158.000 C 122.464 158.000,122.401 158.482,122.574 159.400 C 122.786 160.533,122.712 160.800,122.186 160.800 C 121.670 160.800,121.591 161.051,121.805 162.021 C 122.020 163.002,121.888 163.407,121.136 164.075 C 120.507 164.635,120.364 164.967,120.700 165.087 C 121.322 165.310,121.365 166.800,120.750 166.800 C 120.462 166.800,120.388 167.238,120.543 168.015 C 120.720 168.900,120.619 169.294,120.172 169.466 C 119.724 169.638,119.628 170.018,119.816 170.872 C 120.017 171.787,119.877 172.213,119.175 172.821 C 118.682 173.250,118.485 173.600,118.739 173.600 C 118.992 173.600,119.200 173.960,119.200 174.400 C 119.200 174.840,119.000 175.200,118.755 175.200 C 118.464 175.200,118.401 175.682,118.574 176.600 C 118.784 177.723,118.711 178.000,118.200 178.000 C 117.689 178.000,117.616 178.277,117.826 179.400 C 118.002 180.336,117.938 180.800,117.632 180.800 C 117.357 180.800,117.213 181.367,117.271 182.225 C 117.328 183.078,117.151 183.783,116.829 183.982 C 116.476 184.200,116.382 184.675,116.556 185.366 C 116.746 186.122,116.646 186.484,116.200 186.655 C 115.734 186.834,115.644 187.228,115.835 188.246 C 116.008 189.167,115.937 189.600,115.614 189.600 C 115.324 189.600,115.189 190.073,115.267 190.816 C 115.343 191.542,115.171 192.171,114.839 192.376 C 114.460 192.610,114.363 193.114,114.532 193.960 C 114.724 194.921,114.640 195.200,114.158 195.200 C 113.674 195.200,113.595 195.468,113.804 196.416 C 113.967 197.158,113.883 197.859,113.588 198.214 C 113.323 198.534,113.195 199.261,113.303 199.829 C 113.433 200.509,113.301 200.940,112.917 201.087 C 112.489 201.251,112.400 201.673,112.584 202.656 C 112.784 203.724,112.705 204.000,112.200 204.000 C 111.689 204.000,111.616 204.277,111.826 205.400 C 112.002 206.336,111.938 206.800,111.632 206.800 C 111.357 206.800,111.213 207.367,111.271 208.225 C 111.328 209.078,111.151 209.783,110.829 209.982 C 110.476 210.200,110.382 210.675,110.556 211.366 C 110.746 212.122,110.646 212.484,110.200 212.655 C 109.734 212.834,109.644 213.228,109.835 214.246 C 110.011 215.186,109.939 215.600,109.599 215.600 C 109.279 215.600,109.172 216.029,109.291 216.837 C 109.413 217.670,109.286 218.146,108.902 218.293 C 108.490 218.451,108.402 218.884,108.584 219.856 C 108.784 220.924,108.705 221.200,108.200 221.200 C 107.689 221.200,107.616 221.477,107.826 222.600 C 108.010 223.581,107.942 224.000,107.599 224.000 C 107.283 224.000,107.171 224.423,107.285 225.196 C 107.414 226.077,107.217 226.620,106.538 227.258 C 105.676 228.068,105.661 228.159,106.308 228.662 C 106.963 229.172,106.963 229.229,106.299 229.745 C 105.778 230.150,105.662 230.612,105.849 231.545 C 106.019 232.394,105.945 232.800,105.620 232.800 C 105.328 232.800,105.188 233.259,105.263 233.973 C 105.349 234.792,105.117 235.378,104.493 235.919 C 103.450 236.824,103.364 237.200,104.200 237.200 C 104.530 237.200,104.800 237.470,104.800 237.800 C 104.800 238.130,104.510 238.400,104.155 238.400 C 103.636 238.400,103.562 238.671,103.774 239.800 C 103.947 240.724,103.884 241.200,103.587 241.200 C 103.320 241.200,103.187 241.755,103.257 242.577 C 103.344 243.585,103.146 244.153,102.518 244.698 C 101.730 245.381,101.715 245.480,102.330 245.907 C 102.954 246.340,102.952 246.410,102.299 246.931 C 101.779 247.345,101.663 247.814,101.849 248.745 C 102.011 249.557,101.941 250.000,101.650 250.000 C 101.402 250.000,101.200 250.630,101.200 251.400 C 101.200 252.170,101.012 252.800,100.783 252.800 C 100.546 252.800,100.416 253.450,100.483 254.300 C 100.568 255.388,100.452 255.769,100.063 255.688 C 99.649 255.601,99.588 255.946,99.798 257.188 C 99.990 258.327,99.929 258.800,99.590 258.800 C 99.280 258.800,99.174 259.240,99.291 260.037 C 99.413 260.870,99.286 261.346,98.902 261.493 C 98.490 261.651,98.402 262.084,98.584 263.056 C 98.788 264.142,98.709 264.400,98.174 264.400 C 97.633 264.400,97.559 264.658,97.774 265.800 C 97.947 266.724,97.884 267.200,97.587 267.200 C 97.317 267.200,97.187 267.764,97.261 268.620 C 97.334 269.465,97.175 270.168,96.868 270.358 C 96.537 270.563,96.448 271.052,96.619 271.734 C 96.815 272.513,96.713 272.859,96.233 273.043 C 95.732 273.235,95.640 273.605,95.835 274.646 C 96.011 275.586,95.939 276.000,95.599 276.000 C 95.279 276.000,95.172 276.429,95.291 277.237 C 95.413 278.070,95.286 278.546,94.902 278.693 C 94.490 278.851,94.402 279.284,94.584 280.256 C 94.788 281.342,94.709 281.600,94.174 281.600 C 93.636 281.600,93.559 281.858,93.768 282.969 C 93.924 283.801,93.853 284.444,93.586 284.608 C 93.345 284.757,93.204 285.409,93.271 286.056 C 93.343 286.741,93.165 287.375,92.843 287.573 C 92.494 287.789,92.381 288.269,92.534 288.879 C 92.704 289.557,92.541 290.044,91.984 290.521 C 91.306 291.101,91.265 291.321,91.696 292.052 C 92.099 292.733,92.099 292.941,91.700 293.086 C 91.425 293.185,91.200 293.882,91.200 294.633 C 91.200 295.385,91.000 296.000,90.755 296.000 C 90.464 296.000,90.401 296.482,90.574 297.400 C 90.775 298.473,90.702 298.800,90.261 298.800 C 89.569 298.800,88.975 300.125,89.577 300.326 C 90.115 300.505,90.135 302.000,89.600 302.000 C 89.380 302.000,89.200 302.630,89.200 303.400 C 89.200 304.170,89.000 304.800,88.755 304.800 C 88.464 304.800,88.401 305.282,88.574 306.200 C 88.776 307.281,88.703 307.600,88.251 307.600 C 87.466 307.600,87.227 308.438,87.763 309.312 C 88.094 309.852,88.067 310.107,87.648 310.368 C 87.291 310.590,87.163 311.165,87.284 311.993 C 87.411 312.856,87.291 313.344,86.916 313.488 C 86.530 313.636,86.436 314.055,86.611 314.851 C 86.798 315.699,86.696 316.065,86.222 316.247 C 85.733 316.435,85.641 316.812,85.835 317.846 C 86.000 318.725,85.933 319.200,85.645 319.200 C 85.400 319.200,85.200 319.830,85.200 320.600 C 85.200 321.370,85.000 322.000,84.755 322.000 C 84.464 322.000,84.401 322.482,84.574 323.400 C 84.782 324.509,84.708 324.800,84.218 324.800 C 83.867 324.800,83.600 325.145,83.600 325.600 C 83.600 326.389,83.867 326.400,103.338 326.400 C 125.252 326.400,124.830 326.452,124.176 323.847 C 124.011 323.189,124.078 322.800,124.357 322.800 C 124.600 322.800,124.800 322.181,124.800 321.424 C 124.800 320.667,124.998 319.925,125.240 319.775 C 125.493 319.619,125.581 319.005,125.447 318.336 C 125.281 317.507,125.388 317.103,125.816 316.938 C 126.264 316.766,126.354 316.360,126.165 315.354 C 125.989 314.414,126.061 314.000,126.401 314.000 C 126.721 314.000,126.828 313.571,126.709 312.763 C 126.587 311.930,126.714 311.454,127.098 311.307 C 127.505 311.151,127.598 310.717,127.425 309.791 C 127.241 308.813,127.340 308.432,127.822 308.247 C 128.304 308.062,128.398 307.701,128.200 306.800 C 128.026 306.007,128.093 305.600,128.399 305.600 C 128.685 305.600,128.815 305.058,128.739 304.180 C 128.663 303.299,128.824 302.633,129.162 302.423 C 129.506 302.211,129.619 301.728,129.466 301.121 C 129.296 300.443,129.459 299.956,130.016 299.479 C 130.694 298.899,130.735 298.679,130.304 297.948 C 129.901 297.267,129.901 297.059,130.300 296.914 C 130.575 296.815,130.800 296.118,130.800 295.367 C 130.800 294.615,131.003 294.000,131.250 294.000 C 131.540 294.000,131.612 293.559,131.452 292.762 C 131.257 291.784,131.393 291.366,132.102 290.770 C 132.870 290.125,132.913 289.959,132.400 289.620 C 131.906 289.294,131.888 289.082,132.300 288.418 C 132.575 287.974,132.800 287.068,132.800 286.405 C 132.800 285.742,133.003 285.200,133.250 285.200 C 133.531 285.200,133.615 284.774,133.474 284.069 C 133.309 283.247,133.461 282.754,134.028 282.269 C 134.694 281.698,134.735 281.478,134.304 280.748 C 133.901 280.067,133.901 279.859,134.300 279.714 C 134.575 279.615,134.800 278.929,134.800 278.190 C 134.800 277.452,134.998 276.725,135.240 276.575 C 135.493 276.419,135.581 275.805,135.447 275.136 C 135.281 274.307,135.388 273.903,135.816 273.738 C 136.264 273.566,136.354 273.160,136.165 272.154 C 136.000 271.275,136.067 270.800,136.355 270.800 C 136.600 270.800,136.800 270.170,136.800 269.400 C 136.800 268.630,137.000 268.000,137.245 268.000 C 137.536 268.000,137.599 267.518,137.426 266.600 C 137.225 265.527,137.298 265.200,137.739 265.200 C 138.509 265.200,138.851 264.211,138.279 263.639 C 137.934 263.294,137.942 262.985,138.310 262.395 C 138.580 261.964,138.800 261.068,138.800 260.405 C 138.800 259.742,139.003 259.200,139.250 259.200 C 139.538 259.200,139.612 258.762,139.457 257.985 C 139.287 257.135,139.383 256.705,139.777 256.554 C 140.169 256.403,140.275 255.937,140.126 255.020 C 140.002 254.257,140.099 253.586,140.356 253.427 C 140.600 253.276,140.800 252.533,140.800 251.776 C 140.800 251.019,140.992 250.400,141.226 250.400 C 141.465 250.400,141.596 249.831,141.526 249.100 C 141.447 248.287,141.571 247.832,141.856 247.885 C 142.126 247.936,142.423 247.082,142.585 245.785 C 142.735 244.583,143.025 243.600,143.229 243.600 C 143.433 243.600,143.600 242.880,143.600 242.000 C 143.600 241.120,143.754 240.400,143.942 240.400 C 144.130 240.400,144.398 239.186,144.536 237.702 C 144.675 236.218,144.971 234.943,145.194 234.869 C 145.417 234.794,145.600 234.043,145.600 233.200 C 145.600 232.357,145.778 231.607,145.996 231.533 C 146.214 231.460,146.510 230.275,146.653 228.900 C 146.797 227.525,147.068 226.400,147.257 226.400 C 147.446 226.400,147.600 225.770,147.600 225.000 C 147.600 224.230,147.759 223.600,147.953 223.600 C 148.147 223.600,148.433 222.250,148.587 220.600 C 148.742 218.950,149.033 217.600,149.234 217.600 C 149.435 217.600,149.600 216.895,149.600 216.033 C 149.600 215.172,149.773 214.407,149.984 214.333 C 150.195 214.260,150.491 212.715,150.641 210.900 C 150.792 209.085,151.093 207.600,151.310 207.600 C 151.536 207.600,151.610 207.015,151.483 206.231 C 151.326 205.265,151.426 204.799,151.823 204.646 C 152.217 204.495,152.313 204.065,152.143 203.215 C 151.984 202.422,152.061 202.000,152.363 202.000 C 152.644 202.000,152.787 201.442,152.729 200.575 C 152.672 199.722,152.849 199.017,153.171 198.818 C 153.524 198.600,153.618 198.125,153.444 197.434 C 153.254 196.678,153.354 196.316,153.800 196.145 C 154.266 195.966,154.356 195.572,154.165 194.554 C 153.992 193.633,154.063 193.200,154.386 193.200 C 154.670 193.200,154.812 192.738,154.740 192.050 C 154.673 191.418,154.861 190.608,155.157 190.252 C 155.452 189.896,155.599 189.240,155.483 188.795 C 155.366 188.350,155.531 187.727,155.847 187.410 C 156.204 187.054,156.330 186.462,156.179 185.860 C 156.045 185.325,156.130 184.767,156.368 184.620 C 156.605 184.473,156.800 183.733,156.800 182.976 C 156.800 182.219,157.000 181.600,157.245 181.600 C 157.536 181.600,157.599 181.118,157.426 180.200 C 157.212 179.058,157.286 178.800,157.826 178.800 C 158.367 178.800,158.441 178.542,158.226 177.400 C 158.062 176.525,158.121 176.000,158.382 176.000 C 158.612 176.000,158.800 175.398,158.800 174.662 C 158.800 173.834,159.104 173.049,159.596 172.603 C 160.348 171.923,160.354 171.852,159.696 171.341 C 159.037 170.829,159.039 170.770,159.738 170.228 C 160.301 169.792,160.412 169.365,160.206 168.428 C 160.027 167.611,160.091 167.200,160.398 167.200 C 160.671 167.200,160.810 166.718,160.737 166.027 C 160.651 165.208,160.883 164.622,161.507 164.081 C 162.550 163.176,162.636 162.800,161.800 162.800 C 161.025 162.800,161.033 162.236,161.818 161.585 C 162.233 161.240,162.357 160.713,162.194 159.974 C 162.061 159.365,162.142 158.760,162.377 158.614 C 162.609 158.471,162.800 157.773,162.800 157.065 C 162.800 156.248,163.084 155.572,163.578 155.216 C 164.303 154.693,164.310 154.620,163.678 154.128 C 163.044 153.634,163.048 153.563,163.738 153.028 C 164.301 152.592,164.412 152.165,164.206 151.228 C 164.035 150.449,164.094 150.000,164.368 150.000 C 164.606 150.000,164.800 149.370,164.800 148.600 C 164.800 147.830,165.000 147.200,165.245 147.200 C 165.533 147.200,165.600 146.725,165.435 145.846 C 165.241 144.812,165.333 144.435,165.822 144.247 C 166.298 144.064,166.398 143.700,166.208 142.838 C 166.062 142.172,166.134 141.565,166.377 141.414 C 166.609 141.271,166.800 140.533,166.800 139.776 C 166.800 139.019,167.003 138.400,167.250 138.400 C 167.534 138.400,167.614 137.969,167.467 137.235 C 167.311 136.455,167.432 135.905,167.835 135.571 C 168.242 135.234,168.355 134.706,168.186 133.936 C 168.032 133.236,168.102 132.800,168.368 132.800 C 168.606 132.800,168.800 132.181,168.800 131.424 C 168.800 130.667,168.998 129.925,169.240 129.775 C 169.493 129.619,169.581 129.005,169.447 128.336 C 169.281 127.507,169.388 127.103,169.816 126.938 C 170.264 126.766,170.354 126.360,170.165 125.354 C 169.989 124.414,170.061 124.000,170.401 124.000 C 170.721 124.000,170.828 123.571,170.709 122.763 C 170.587 121.930,170.714 121.454,171.098 121.307 C 171.505 121.151,171.598 120.717,171.425 119.791 C 171.241 118.813,171.340 118.432,171.822 118.247 C 172.304 118.062,172.398 117.701,172.200 116.800 C 172.026 116.007,172.093 115.600,172.399 115.600 C 172.685 115.600,172.815 115.058,172.739 114.180 C 172.663 113.299,172.824 112.633,173.162 112.423 C 173.506 112.211,173.619 111.728,173.466 111.121 C 173.296 110.443,173.459 109.956,174.016 109.479 C 174.694 108.899,174.735 108.679,174.304 107.948 C 173.901 107.267,173.901 107.059,174.300 106.914 C 174.575 106.815,174.800 106.118,174.800 105.367 C 174.800 104.615,175.003 104.000,175.250 104.000 C 175.540 104.000,175.612 103.559,175.452 102.762 C 175.257 101.784,175.393 101.366,176.102 100.770 C 176.870 100.125,176.913 99.959,176.400 99.620 C 175.906 99.294,175.888 99.082,176.300 98.418 C 176.575 97.974,176.800 97.068,176.800 96.405 C 176.800 95.742,177.003 95.200,177.250 95.200 C 177.531 95.200,177.615 94.774,177.474 94.069 C 177.309 93.247,177.461 92.754,178.028 92.269 C 178.694 91.698,178.735 91.478,178.304 90.748 C 177.901 90.067,177.901 89.859,178.300 89.714 C 178.575 89.615,178.800 88.929,178.800 88.190 C 178.800 87.452,178.998 86.725,179.240 86.575 C 179.493 86.419,179.581 85.805,179.447 85.136 C 179.281 84.307,179.388 83.903,179.816 83.738 C 180.264 83.566,180.354 83.160,180.165 82.154 C 180.000 81.275,180.067 80.800,180.355 80.800 C 180.600 80.800,180.800 80.170,180.800 79.400 C 180.800 78.630,181.000 78.000,181.245 78.000 C 181.536 78.000,181.599 77.518,181.426 76.600 C 181.218 75.491,181.292 75.200,181.782 75.200 C 182.175 75.200,182.400 74.835,182.400 74.200 L 182.400 73.200 162.600 73.200 C 145.267 73.200,142.800 73.275,142.800 73.800 M267.000 182.800 C 266.838 183.063,251.628 183.200,222.676 183.201 C 198.434 183.202,175.223 183.320,171.096 183.465 L 163.592 183.727 163.696 202.963 L 163.800 222.200 168.400 222.083 C 170.930 222.019,187.421 221.882,205.047 221.779 L 237.094 221.591 237.343 223.095 C 237.479 223.923,237.593 239.135,237.596 256.900 L 237.600 289.200 193.664 289.200 C 169.499 289.200,146.459 289.318,142.464 289.463 L 135.200 289.726 135.200 308.064 L 135.200 326.402 206.300 326.301 L 277.400 326.200 277.306 323.400 C 277.254 321.860,277.032 289.732,276.812 252.004 C 276.592 214.276,276.325 183.181,276.218 182.904 C 275.979 182.279,267.382 182.182,267.000 182.800 " stroke="none" fill="#000000" fill-rule="evenodd"></path><path id="path1" d="M175.600 101.800 C 175.600 102.130,175.780 102.400,176.000 102.400 C 176.220 102.400,176.400 102.130,176.400 101.800 C 176.400 101.470,176.220 101.200,176.000 101.200 C 175.780 101.200,175.600 101.470,175.600 101.800 M134.667 104.667 C 134.269 105.065,134.345 106.000,134.775 106.000 C 134.981 106.000,135.123 105.640,135.090 105.200 C 135.022 104.296,135.029 104.305,134.667 104.667 M121.600 160.024 C 121.600 160.477,121.780 160.736,122.000 160.600 C 122.220 160.464,122.400 160.093,122.400 159.776 C 122.400 159.459,122.220 159.200,122.000 159.200 C 121.780 159.200,121.600 159.571,121.600 160.024 M119.308 171.228 C 119.276 171.652,119.419 172.000,119.625 172.000 C 120.080 172.000,120.127 170.925,119.683 170.651 C 119.509 170.544,119.340 170.803,119.308 171.228 M113.308 197.228 C 113.276 197.652,113.419 198.000,113.625 198.000 C 114.080 198.000,114.127 196.925,113.683 196.651 C 113.509 196.544,113.340 196.803,113.308 197.228 M150.800 208.800 C 150.800 209.240,150.980 209.600,151.200 209.600 C 151.420 209.600,151.600 209.240,151.600 208.800 C 151.600 208.360,151.420 208.000,151.200 208.000 C 150.980 208.000,150.800 208.360,150.800 208.800 M131.600 291.800 C 131.600 292.130,131.780 292.400,132.000 292.400 C 132.220 292.400,132.400 292.130,132.400 291.800 C 132.400 291.470,132.220 291.200,132.000 291.200 C 131.780 291.200,131.600 291.470,131.600 291.800 M90.667 294.667 C 90.269 295.065,90.345 296.000,90.775 296.000 C 90.981 296.000,91.123 295.640,91.090 295.200 C 91.022 294.296,91.029 294.305,90.667 294.667 " stroke="none" fill="#ececec" fill-rule="evenodd"></path><path id="path2" d="M171.700 118.288 C 171.425 118.386,171.200 118.735,171.200 119.062 C 171.200 119.567,171.298 119.559,171.848 119.010 C 172.552 118.306,172.490 118.006,171.700 118.288 M126.400 142.567 C 126.400 142.878,126.175 143.224,125.900 143.335 C 125.601 143.456,125.682 143.550,126.100 143.568 C 126.544 143.588,126.800 143.307,126.800 142.800 C 126.800 142.360,126.710 142.000,126.600 142.000 C 126.490 142.000,126.400 142.255,126.400 142.567 M100.300 254.862 C 100.468 255.505,100.392 255.642,100.001 255.401 C 99.651 255.184,99.573 255.232,99.766 255.545 C 99.925 255.802,100.223 255.909,100.428 255.783 C 100.904 255.489,100.910 254.515,100.437 254.223 C 100.238 254.100,100.176 254.387,100.300 254.862 M127.700 308.288 C 127.425 308.386,127.200 308.735,127.200 309.062 C 127.200 309.567,127.298 309.559,127.848 309.010 C 128.552 308.306,128.490 308.006,127.700 308.288 M123.600 325.800 C 123.192 326.291,123.220 326.400,123.751 326.400 C 124.108 326.400,124.400 326.130,124.400 325.800 C 124.400 325.470,124.332 325.200,124.249 325.200 C 124.166 325.200,123.874 325.470,123.600 325.800 " stroke="none" fill="#f4f4f4" fill-rule="evenodd"></path><path id="path3" d="M140.400 79.000 C 140.400 79.330,140.580 79.600,140.800 79.600 C 141.020 79.600,141.200 79.330,141.200 79.000 C 141.200 78.670,141.020 78.400,140.800 78.400 C 140.580 78.400,140.400 78.670,140.400 79.000 M177.600 93.600 C 177.600 94.347,177.707 94.453,178.080 94.080 C 178.453 93.707,178.453 93.493,178.080 93.120 C 177.707 92.747,177.600 92.853,177.600 93.600 M135.892 98.642 C 135.731 98.802,135.600 99.209,135.600 99.547 C 135.600 99.997,135.718 100.042,136.045 99.715 C 136.290 99.470,136.421 99.063,136.337 98.810 C 136.252 98.557,136.052 98.481,135.892 98.642 M131.606 115.900 C 131.624 116.777,132.388 117.359,132.394 116.500 C 132.397 116.005,132.220 115.600,132.000 115.600 C 131.780 115.600,131.603 115.735,131.606 115.900 M171.600 119.576 C 171.600 120.029,171.780 120.400,172.000 120.400 C 172.220 120.400,172.400 120.141,172.400 119.824 C 172.400 119.507,172.220 119.136,172.000 119.000 C 171.780 118.864,171.600 119.123,171.600 119.576 M125.600 142.200 C 125.600 142.530,125.780 142.800,126.000 142.800 C 126.220 142.800,126.400 142.530,126.400 142.200 C 126.400 141.870,126.220 141.600,126.000 141.600 C 125.780 141.600,125.600 141.870,125.600 142.200 M165.708 145.572 C 165.740 145.997,165.909 146.256,166.083 146.149 C 166.527 145.875,166.480 144.800,166.025 144.800 C 165.819 144.800,165.676 145.148,165.708 145.572 M123.600 151.000 C 123.600 151.330,123.780 151.600,124.000 151.600 C 124.220 151.600,124.400 151.330,124.400 151.000 C 124.400 150.670,124.220 150.400,124.000 150.400 C 123.780 150.400,123.600 150.670,123.600 151.000 M162.800 157.000 C 162.800 157.330,162.980 157.600,163.200 157.600 C 163.420 157.600,163.600 157.330,163.600 157.000 C 163.600 156.670,163.420 156.400,163.200 156.400 C 162.980 156.400,162.800 156.670,162.800 157.000 M161.079 165.357 C 160.915 165.774,160.875 166.209,160.991 166.324 C 161.355 166.689,161.676 166.091,161.524 165.331 C 161.383 164.635,161.362 164.636,161.079 165.357 M156.800 183.000 C 156.800 183.330,156.980 183.600,157.200 183.600 C 157.420 183.600,157.600 183.330,157.600 183.000 C 157.600 182.670,157.420 182.400,157.200 182.400 C 156.980 182.400,156.800 182.670,156.800 183.000 M154.800 191.600 C 154.800 192.347,154.907 192.453,155.280 192.080 C 155.653 191.707,155.653 191.493,155.280 191.120 C 154.907 190.747,154.800 190.853,154.800 191.600 M110.612 208.117 C 110.441 208.512,110.413 208.947,110.551 209.084 C 110.957 209.490,111.284 208.920,111.097 208.131 C 110.932 207.433,110.910 207.432,110.612 208.117 M106.400 225.800 C 106.400 226.130,106.580 226.400,106.800 226.400 C 107.020 226.400,107.200 226.130,107.200 225.800 C 107.200 225.470,107.020 225.200,106.800 225.200 C 106.580 225.200,106.400 225.470,106.400 225.800 M99.867 253.867 C 99.469 254.265,99.545 255.200,99.975 255.200 C 100.181 255.200,100.323 254.840,100.290 254.400 C 100.222 253.496,100.229 253.505,99.867 253.867 M98.400 260.200 C 98.400 260.530,98.580 260.800,98.800 260.800 C 99.020 260.800,99.200 260.530,99.200 260.200 C 99.200 259.870,99.020 259.600,98.800 259.600 C 98.580 259.600,98.400 259.870,98.400 260.200 M96.400 269.000 C 96.400 269.330,96.580 269.600,96.800 269.600 C 97.020 269.600,97.200 269.330,97.200 269.000 C 97.200 268.670,97.020 268.400,96.800 268.400 C 96.580 268.400,96.400 268.670,96.400 269.000 M133.600 283.600 C 133.600 284.347,133.707 284.453,134.080 284.080 C 134.453 283.707,134.453 283.493,134.080 283.120 C 133.707 282.747,133.600 282.853,133.600 283.600 M91.892 288.642 C 91.731 288.802,91.600 289.209,91.600 289.547 C 91.600 289.997,91.718 290.042,92.045 289.715 C 92.290 289.470,92.421 289.063,92.337 288.810 C 92.252 288.557,92.052 288.481,91.892 288.642 M87.606 305.900 C 87.624 306.777,88.388 307.359,88.394 306.500 C 88.397 306.005,88.220 305.600,88.000 305.600 C 87.780 305.600,87.603 305.735,87.606 305.900 M127.600 309.576 C 127.600 310.029,127.780 310.400,128.000 310.400 C 128.220 310.400,128.400 310.141,128.400 309.824 C 128.400 309.507,128.220 309.136,128.000 309.000 C 127.780 308.864,127.600 309.123,127.600 309.576 " stroke="none" fill="#e4e4e4" fill-rule="evenodd"></path><path id="path4" d="" stroke="none" fill="#100f8fc" fill-rule="evenodd"></path></g></svg>