<svg id="svg" xmlns="http://www.w3.org/2000/svg" xmlns:xlink="http://www.w3.org/1999/xlink" width="400" height="400" viewBox="0, 0, 400,400"><g id="svgg"><path id="path0" d="M117.844 75.347 C 58.163 95.923,45.754 170.967,95.988 207.523 C 110.365 217.985,110.849 218.844,106.672 226.500 C 106.072 227.600,105.417 229.850,105.218 231.500 C 105.018 233.150,104.437 234.927,103.927 235.450 C 103.417 235.972,103.000 238.035,103.000 240.033 C 103.000 242.032,102.687 243.980,102.304 244.362 C 101.602 245.065,101.375 246.050,100.661 251.500 C 100.444 253.150,100.026 255.175,99.731 256.000 C 99.437 256.825,98.726 259.525,98.152 262.000 C 97.578 264.475,96.211 270.325,95.114 275.000 C 94.016 279.675,92.586 285.975,91.935 289.000 C 91.284 292.025,90.303 295.738,89.755 297.250 L 88.757 300.000 78.379 300.000 L 68.000 300.000 68.000 311.500 L 68.000 323.000 152.250 322.994 C 245.079 322.988,240.743 323.280,251.222 316.337 C 298.863 284.773,281.956 205.517,225.711 196.751 C 218.947 195.696,217.847 195.238,217.353 193.268 C 217.039 192.021,216.352 191.000,215.824 191.000 C 215.297 191.000,215.160 190.072,215.520 188.938 C 216.123 187.036,212.251 168.455,208.030 153.000 C 207.053 149.425,205.684 143.800,204.986 140.500 C 204.288 137.200,202.881 131.246,201.859 127.268 C 200.836 123.291,200.000 119.128,200.000 118.018 C 200.000 116.908,199.623 116.000,199.162 116.000 C 198.701 116.000,198.262 114.346,198.186 112.324 C 198.110 110.302,197.698 108.389,197.270 108.074 C 196.843 107.758,196.371 105.588,196.222 103.250 L 195.952 99.000 232.476 99.000 L 269.000 99.000 269.000 85.500 L 269.000 72.000 198.250 72.009 L 127.500 72.018 117.844 75.347 M134.866 103.000 C 134.390 105.200,133.595 108.688,133.101 110.750 C 132.606 112.813,131.725 116.750,131.143 119.500 C 130.561 122.250,129.388 127.120,128.536 130.323 C 127.684 133.526,126.878 137.688,126.744 139.571 C 126.610 141.455,126.162 142.997,125.750 142.998 C 125.338 142.999,125.000 143.726,125.000 144.614 C 125.000 145.502,123.838 150.957,122.419 156.737 C 120.999 162.518,119.680 168.429,119.488 169.873 C 119.295 171.318,119.051 172.613,118.944 172.750 C 118.696 173.070,118.623 173.368,117.120 180.233 C 115.448 187.872,115.045 187.922,108.936 181.248 C 84.336 154.372,96.265 111.599,131.465 100.473 C 133.684 99.772,135.552 99.153,135.616 99.099 C 135.679 99.044,135.342 100.800,134.866 103.000 M166.230 151.230 C 166.429 152.712,166.908 154.241,167.296 154.629 C 167.683 155.016,168.000 156.968,168.000 158.967 C 168.000 160.965,168.461 163.061,169.024 163.624 C 169.587 164.187,170.110 166.302,170.186 168.324 C 170.279 170.799,170.796 172.000,171.769 172.000 C 172.716 172.000,172.990 172.584,172.564 173.693 C 171.889 175.454,173.447 183.657,175.281 188.000 C 175.862 189.375,176.245 191.216,176.133 192.091 C 176.020 192.965,176.383 194.878,176.939 196.341 L 177.950 199.000 165.975 199.000 C 159.389 199.000,154.000 198.645,154.000 198.210 C 154.000 197.776,154.608 194.963,155.351 191.960 C 156.094 188.957,157.294 183.800,158.019 180.500 C 158.743 177.200,159.631 174.050,159.991 173.500 C 160.351 172.950,160.741 170.932,160.857 169.016 C 160.973 167.100,161.502 165.098,162.034 164.566 C 162.565 164.035,163.000 161.965,163.000 159.967 C 163.000 157.968,163.338 155.996,163.750 155.583 C 164.579 154.754,164.693 154.224,164.875 150.333 C 165.027 147.088,165.739 147.559,166.230 151.230 M184.605 228.569 C 184.806 232.538,186.096 238.000,186.833 238.000 C 187.241 238.000,187.650 239.873,187.741 242.162 C 187.832 244.451,188.265 246.589,188.703 246.912 C 189.142 247.236,189.601 249.041,189.723 250.925 C 189.846 252.808,190.339 254.608,190.818 254.925 C 191.298 255.241,191.744 257.138,191.810 259.139 C 191.877 261.141,192.846 266.195,193.965 270.371 C 195.084 274.547,196.000 278.872,196.000 279.982 C 196.000 281.092,196.470 282.000,197.044 282.000 C 197.618 282.000,198.015 282.563,197.925 283.250 C 197.461 286.825,198.164 291.021,199.441 292.298 C 200.289 293.146,200.641 294.656,200.297 295.972 C 199.940 297.338,200.254 298.547,201.107 299.087 C 201.927 299.607,187.797 299.976,166.750 299.985 C 134.897 299.998,131.000 299.829,131.000 298.427 C 131.000 297.562,131.922 292.950,133.049 288.177 C 134.176 283.405,135.950 275.900,136.990 271.500 C 138.030 267.100,139.423 261.025,140.085 258.000 C 140.746 254.975,142.079 249.575,143.047 246.000 C 144.015 242.425,145.335 237.025,145.981 234.000 C 146.627 230.975,147.335 227.927,147.555 227.227 C 148.348 224.702,184.475 226.011,184.605 228.569 M235.875 229.684 C 257.437 242.237,261.677 271.351,244.384 288.112 C 240.446 291.930,239.482 291.391,238.372 284.750 C 238.027 282.688,237.382 281.000,236.939 281.000 C 236.496 281.000,236.170 279.733,236.214 278.185 C 236.306 274.960,231.960 255.754,230.968 255.000 C 230.606 254.725,230.238 252.925,230.149 251.000 C 229.901 245.587,229.421 243.640,228.235 243.245 C 227.569 243.023,227.370 241.494,227.724 239.315 C 228.148 236.702,227.892 235.519,226.766 234.889 C 225.752 234.321,225.339 232.921,225.551 230.765 C 225.728 228.969,225.901 227.114,225.936 226.642 C 226.034 225.327,231.003 226.848,235.875 229.684 " stroke="none" fill="#000000" fill-rule="evenodd"></path></g></svg>