<svg id="svg" xmlns="http://www.w3.org/2000/svg" xmlns:xlink="http://www.w3.org/1999/xlink" width="400" height="400" viewBox="0, 0, 400,400" version="1.1"><g id="svgg"><path id="path0" d="M126.200 71.200 C 126.064 71.420,125.256 71.600,124.405 71.600 C 123.554 71.600,122.587 71.870,122.257 72.200 C 121.927 72.530,121.115 72.800,120.452 72.800 C 119.789 72.800,119.136 72.980,119.000 73.200 C 118.864 73.420,118.326 73.600,117.805 73.600 C 117.284 73.600,116.587 73.870,116.257 74.200 C 115.927 74.530,115.191 74.800,114.621 74.800 C 114.051 74.800,112.871 75.250,112.000 75.800 C 111.129 76.350,110.113 76.800,109.742 76.800 C 108.837 76.800,106.000 78.071,106.000 78.477 C 106.000 78.655,105.671 78.800,105.270 78.800 C 104.868 78.800,104.117 79.250,103.600 79.800 C 103.083 80.350,102.377 80.806,102.030 80.813 C 101.684 80.821,100.680 81.359,99.800 82.010 C 98.920 82.660,97.705 83.392,97.100 83.636 C 96.495 83.879,96.000 84.208,96.000 84.365 C 96.000 84.523,95.325 85.034,94.500 85.500 C 93.675 85.966,92.288 87.079,91.419 87.974 C 90.549 88.868,89.609 89.600,89.329 89.600 C 88.627 89.600,82.800 95.371,82.800 96.066 C 82.800 96.375,81.799 97.611,80.576 98.814 C 79.353 100.016,77.970 101.675,77.502 102.500 C 77.035 103.325,76.523 104.000,76.365 104.000 C 76.208 104.000,75.879 104.495,75.636 105.100 C 75.392 105.705,74.660 106.920,74.010 107.800 C 73.359 108.680,72.821 109.629,72.813 109.908 C 72.806 110.187,72.350 111.129,71.800 112.000 C 70.717 113.716,70.546 114.786,71.245 115.485 C 71.808 116.048,71.300 116.924,70.572 116.645 C 69.776 116.339,69.508 117.026,70.200 117.600 C 70.930 118.205,70.617 118.800,69.569 118.800 C 68.932 118.800,68.832 118.988,69.036 119.800 C 69.223 120.544,69.128 120.800,68.667 120.800 C 67.787 120.800,67.446 121.533,68.010 122.212 C 68.556 122.870,68.217 124.181,67.600 123.800 C 66.934 123.388,66.655 124.782,67.200 125.800 C 67.836 126.988,67.474 128.000,66.413 128.000 C 65.443 128.000,65.385 128.500,66.209 129.758 C 66.754 130.590,66.754 130.740,66.209 131.193 C 65.874 131.471,65.597 131.541,65.594 131.349 C 65.591 131.157,65.413 131.270,65.200 131.600 C 64.691 132.387,64.691 134.286,65.200 134.600 C 66.093 135.152,65.643 136.800,64.600 136.800 L 63.600 136.800 63.600 147.000 L 63.600 157.200 64.600 157.200 C 65.643 157.200,66.093 158.848,65.200 159.400 C 64.314 159.947,64.864 163.200,65.843 163.200 C 66.520 163.200,66.556 163.762,65.941 164.745 C 65.239 165.871,65.807 167.576,66.798 167.316 C 67.620 167.101,67.918 167.756,67.200 168.200 C 66.488 168.640,66.761 170.065,67.600 170.284 C 68.444 170.505,68.676 171.382,68.000 171.800 C 67.410 172.165,67.514 173.733,68.187 174.624 C 68.510 175.051,68.780 175.629,68.787 175.908 C 68.794 176.187,69.250 177.129,69.800 178.000 C 70.350 178.871,70.800 179.771,70.800 180.000 C 70.800 180.229,71.250 181.129,71.800 182.000 C 72.350 182.871,72.806 183.813,72.813 184.092 C 72.821 184.371,73.359 185.320,74.010 186.200 C 74.660 187.080,75.392 188.295,75.636 188.900 C 75.879 189.505,76.208 190.000,76.365 190.000 C 76.523 190.000,77.035 190.675,77.502 191.500 C 77.970 192.325,79.353 193.984,80.576 195.186 C 81.799 196.389,82.800 197.625,82.800 197.934 C 82.800 198.627,88.626 204.400,89.325 204.400 C 89.603 204.400,90.717 205.300,91.800 206.400 C 92.883 207.500,93.957 208.400,94.185 208.400 C 94.413 208.401,95.123 208.851,95.762 209.400 C 96.401 209.950,97.131 210.400,97.384 210.400 C 97.636 210.400,98.454 211.030,99.200 211.800 C 99.946 212.570,100.839 213.200,101.184 213.200 C 101.528 213.200,102.148 213.650,102.561 214.200 C 102.974 214.750,103.634 215.200,104.028 215.200 C 104.465 215.200,104.794 215.549,104.872 216.096 C 104.946 216.616,105.336 217.054,105.800 217.139 C 107.400 217.433,108.343 219.494,107.200 220.200 C 106.980 220.336,106.800 221.247,106.800 222.224 C 106.800 223.201,106.632 224.000,106.427 224.000 C 106.222 224.000,105.927 224.405,105.772 224.900 C 105.617 225.395,105.098 226.270,104.618 226.845 C 103.919 227.681,103.729 228.468,103.667 230.793 C 103.601 233.237,103.431 233.885,102.594 234.880 C 101.713 235.927,101.600 236.432,101.600 239.331 C 101.599 242.173,101.478 242.741,100.671 243.679 C 99.906 244.568,99.729 245.270,99.665 247.665 C 99.622 249.265,99.410 250.750,99.193 250.967 C 98.465 251.695,98.776 253.166,99.800 253.837 C 101.260 254.793,101.059 255.530,99.300 255.676 C 97.544 255.821,97.134 257.011,98.161 258.990 C 98.845 260.308,98.686 260.800,97.576 260.800 C 97.042 260.800,96.796 261.080,96.787 261.700 C 96.780 262.195,96.510 262.949,96.187 263.376 C 95.438 264.368,95.451 266.770,96.213 267.776 C 97.025 268.850,96.955 269.161,95.800 269.600 C 95.172 269.839,94.800 270.292,94.800 270.819 C 94.800 271.280,94.530 271.927,94.200 272.257 C 93.831 272.626,93.600 273.607,93.600 274.805 C 93.600 275.876,93.420 276.864,93.200 277.000 C 92.980 277.136,92.800 277.789,92.800 278.452 C 92.800 279.115,92.530 279.927,92.200 280.257 C 91.801 280.656,91.600 281.655,91.600 283.234 C 91.600 284.541,91.381 285.961,91.113 286.390 C 90.706 287.042,90.774 287.368,91.525 288.385 L 92.424 289.600 91.012 289.600 L 89.600 289.600 89.600 291.600 C 89.600 292.700,89.759 293.600,89.953 293.600 C 90.519 293.600,90.816 295.343,90.304 295.659 C 90.048 295.818,89.703 295.864,89.538 295.762 C 89.373 295.660,88.824 296.298,88.319 297.180 L 87.400 298.783 77.200 298.892 L 67.000 299.000 66.894 311.152 C 66.819 319.785,66.920 323.462,67.243 323.852 C 67.962 324.718,238.081 324.667,238.800 323.800 C 239.102 323.436,239.978 323.200,241.025 323.200 C 241.975 323.200,242.864 323.020,243.000 322.800 C 243.136 322.580,243.732 322.397,244.324 322.393 C 244.943 322.389,245.800 321.965,246.342 321.393 C 246.860 320.847,247.513 320.400,247.793 320.400 C 248.073 320.400,248.526 320.130,248.800 319.800 C 249.074 319.470,249.623 319.200,250.020 319.200 C 250.417 319.200,251.096 318.750,251.529 318.200 C 251.961 317.650,252.569 317.200,252.879 317.200 C 253.189 317.200,254.054 316.570,254.800 315.800 C 255.546 315.030,256.421 314.400,256.744 314.400 C 257.496 314.400,266.400 305.477,266.400 304.723 C 266.400 304.412,267.030 303.546,267.800 302.800 C 268.570 302.054,269.200 301.227,269.200 300.964 C 269.200 300.700,269.647 300.060,270.193 299.542 C 270.739 299.024,271.189 298.296,271.193 297.924 C 271.197 297.552,271.375 297.139,271.589 297.007 C 271.929 296.797,272.484 295.730,273.362 293.600 C 273.498 293.270,273.954 292.460,274.375 291.800 C 274.797 291.140,275.155 290.307,275.171 289.949 C 275.187 289.591,275.470 289.074,275.800 288.800 C 276.130 288.526,276.400 287.795,276.400 287.175 C 276.400 286.555,276.580 285.936,276.800 285.800 C 277.020 285.664,277.200 285.045,277.200 284.425 C 277.200 283.805,277.470 283.074,277.800 282.800 C 278.130 282.526,278.400 281.795,278.400 281.175 C 278.400 280.555,278.580 279.936,278.800 279.800 C 279.020 279.664,279.200 278.595,279.200 277.425 C 279.200 276.022,279.404 275.128,279.800 274.800 C 280.310 274.377,280.400 272.447,280.400 262.000 C 280.400 251.553,280.310 249.623,279.800 249.200 C 279.404 248.872,279.200 247.978,279.200 246.575 C 279.200 245.405,279.020 244.336,278.800 244.200 C 278.580 244.064,278.400 243.445,278.400 242.825 C 278.400 242.205,278.130 241.474,277.800 241.200 C 277.470 240.926,277.200 240.195,277.200 239.575 C 277.200 238.955,277.020 238.336,276.800 238.200 C 276.580 238.064,276.400 237.445,276.400 236.825 C 276.400 236.205,276.130 235.474,275.800 235.200 C 275.470 234.926,275.187 234.409,275.171 234.051 C 275.155 233.693,274.797 232.860,274.375 232.200 C 273.954 231.540,273.498 230.730,273.362 230.400 C 272.484 228.270,271.929 227.203,271.589 226.993 C 271.375 226.861,271.200 226.429,271.200 226.032 C 271.200 225.636,270.750 224.974,270.200 224.561 C 269.650 224.148,269.200 223.528,269.200 223.184 C 269.200 222.839,268.570 221.946,267.800 221.200 C 267.030 220.454,266.400 219.606,266.400 219.316 C 266.400 218.657,256.178 208.346,254.756 207.570 C 253.328 206.791,250.245 204.742,250.000 204.409 C 249.688 203.985,247.138 202.800,246.539 202.800 C 246.242 202.800,246.000 202.655,246.000 202.477 C 246.000 202.123,243.212 200.800,242.466 200.800 C 242.210 200.800,242.000 200.655,242.000 200.477 C 242.000 200.169,239.254 198.800,238.637 198.800 C 238.475 198.800,238.073 198.530,237.743 198.200 C 237.413 197.870,236.716 197.600,236.195 197.600 C 235.674 197.600,235.136 197.420,235.000 197.200 C 234.864 196.980,233.998 196.794,233.076 196.787 C 232.154 196.780,231.051 196.510,230.624 196.187 C 230.194 195.862,228.998 195.600,227.947 195.600 C 226.902 195.600,225.936 195.420,225.800 195.200 C 225.664 194.980,224.123 194.800,222.376 194.800 C 219.499 194.800,219.200 194.727,219.200 194.024 C 219.200 193.597,219.020 193.136,218.800 193.000 C 218.580 192.864,218.400 192.326,218.400 191.805 C 218.400 191.284,218.130 190.587,217.800 190.257 C 217.367 189.824,217.200 188.768,217.200 186.452 C 217.200 184.689,217.020 183.136,216.800 183.000 C 216.580 182.864,216.400 182.065,216.400 181.225 C 216.400 180.356,216.142 179.484,215.800 179.200 C 215.404 178.872,215.200 177.978,215.200 176.575 C 215.200 175.405,215.020 174.336,214.800 174.200 C 214.580 174.064,214.400 173.445,214.400 172.825 C 214.400 172.205,214.130 171.474,213.800 171.200 C 213.404 170.872,213.200 169.978,213.200 168.575 C 213.200 167.405,213.020 166.336,212.800 166.200 C 212.580 166.064,212.400 165.256,212.400 164.405 C 212.400 163.554,212.130 162.587,211.800 162.257 C 211.412 161.869,211.200 160.879,211.200 159.452 C 211.200 158.239,211.020 157.136,210.800 157.000 C 210.580 156.864,210.400 156.326,210.400 155.805 C 210.400 155.284,210.130 154.587,209.800 154.257 C 209.466 153.923,209.200 152.945,209.200 152.052 C 209.200 151.169,209.020 150.336,208.800 150.200 C 208.580 150.064,208.400 149.445,208.400 148.825 C 208.400 148.205,208.130 147.474,207.800 147.200 C 207.374 146.846,207.200 145.911,207.200 143.975 C 207.200 142.475,207.020 141.136,206.800 141.000 C 206.580 140.864,206.400 140.326,206.400 139.805 C 206.400 139.284,206.130 138.587,205.800 138.257 C 205.390 137.847,205.200 136.834,205.200 135.052 C 205.200 133.619,205.020 132.336,204.800 132.200 C 204.580 132.064,204.400 131.445,204.400 130.825 C 204.400 130.205,204.130 129.474,203.800 129.200 C 203.404 128.872,203.200 127.978,203.200 126.575 C 203.200 125.405,203.020 124.336,202.800 124.200 C 202.580 124.064,202.400 123.445,202.400 122.825 C 202.400 122.205,202.130 121.474,201.800 121.200 C 201.373 120.845,201.200 119.907,201.200 117.938 C 201.200 115.986,201.041 115.114,200.659 114.967 C 200.342 114.846,200.191 114.381,200.294 113.843 C 200.392 113.330,200.190 112.647,199.835 112.292 C 199.406 111.863,199.200 110.929,199.200 109.416 C 199.200 107.969,199.019 107.106,198.690 106.979 C 198.363 106.854,198.232 106.241,198.325 105.270 C 198.423 104.236,198.268 103.588,197.835 103.229 C 197.486 102.939,197.200 102.184,197.200 101.551 L 197.200 100.400 233.386 100.400 C 268.753 100.400,269.581 100.382,269.986 99.626 C 270.609 98.461,270.548 71.908,269.920 71.280 C 269.294 70.654,126.587 70.574,126.200 71.200 M133.982 103.599 C 134.526 103.952,134.882 105.597,134.427 105.650 C 134.192 105.678,133.817 105.722,133.594 105.750 C 132.640 105.867,131.605 108.235,131.603 110.305 C 131.601 111.463,131.379 112.765,131.109 113.197 C 130.707 113.841,130.743 114.195,131.309 115.154 C 132.204 116.668,132.196 116.694,130.900 116.643 C 129.820 116.601,129.798 116.648,129.679 119.200 C 129.612 120.630,129.387 121.971,129.179 122.180 C 128.970 122.389,128.794 123.019,128.787 123.580 C 128.780 124.141,128.510 124.949,128.187 125.376 C 127.862 125.806,127.600 127.002,127.600 128.053 C 127.600 129.098,127.420 130.064,127.200 130.200 C 126.980 130.336,126.794 130.932,126.787 131.524 C 126.780 132.116,126.510 132.949,126.187 133.376 C 125.829 133.850,125.600 135.050,125.600 136.453 C 125.600 137.718,125.420 138.864,125.200 139.000 C 124.493 139.437,124.772 140.690,125.793 141.658 C 127.242 143.033,127.101 143.723,125.411 143.525 C 123.895 143.348,123.600 143.688,123.600 145.609 C 123.600 146.238,123.420 146.864,123.200 147.000 C 122.421 147.481,122.785 149.273,123.829 150.094 C 124.993 151.010,124.747 151.479,123.000 151.669 C 121.864 151.793,121.793 151.906,121.676 153.800 C 121.608 154.900,121.383 155.971,121.176 156.180 C 120.507 156.856,120.777 158.338,121.684 158.974 C 122.690 159.679,122.347 160.259,120.800 160.466 C 120.082 160.562,119.762 160.882,119.666 161.600 C 119.593 162.150,119.368 162.771,119.166 162.980 C 118.965 163.189,118.800 164.327,118.800 165.509 C 118.800 166.916,118.586 167.871,118.180 168.277 C 117.340 169.117,117.610 170.172,118.704 170.328 C 119.639 170.461,119.916 171.358,119.165 171.822 C 118.926 171.969,118.536 171.896,118.299 171.659 C 117.576 170.936,116.828 172.404,116.800 174.600 C 116.786 175.701,116.511 176.949,116.187 177.376 C 115.862 177.806,115.600 179.002,115.600 180.053 C 115.600 181.098,115.420 182.064,115.200 182.200 C 114.980 182.336,114.800 182.977,114.800 183.624 C 114.800 184.271,114.715 184.800,114.611 184.800 C 114.166 184.800,107.200 177.531,107.200 177.068 C 107.200 176.787,106.584 175.960,105.831 175.230 C 105.078 174.501,104.355 173.475,104.224 172.952 C 104.092 172.428,103.808 172.000,103.592 172.000 C 103.377 172.000,103.200 171.790,103.200 171.534 C 103.200 170.788,101.877 168.000,101.523 168.000 C 101.345 168.000,101.200 167.676,101.200 167.280 C 101.200 166.294,100.423 165.600,99.320 165.600 C 98.377 165.600,98.086 165.041,98.800 164.600 C 99.532 164.147,99.251 162.800,98.424 162.800 C 97.380 162.800,97.073 162.203,97.804 161.596 C 98.893 160.693,98.583 158.476,97.400 158.702 C 96.667 158.842,96.400 158.721,96.400 158.247 C 96.400 157.891,96.580 157.600,96.800 157.600 C 97.743 157.600,97.257 152.864,96.300 152.728 C 95.285 152.584,95.096 149.689,96.028 148.566 C 96.388 148.133,96.388 147.867,96.028 147.434 C 95.096 146.311,95.285 143.416,96.300 143.272 C 97.272 143.134,97.698 139.155,96.800 138.600 C 95.933 138.064,96.377 137.102,97.400 137.298 C 98.455 137.500,98.967 135.197,98.000 134.600 C 97.296 134.165,97.572 133.200,98.400 133.200 C 98.941 133.200,99.200 132.933,99.200 132.376 C 99.200 131.923,99.367 131.656,99.571 131.782 C 100.151 132.141,100.492 130.520,100.022 129.641 C 99.434 128.542,99.482 128.400,100.447 128.400 C 101.096 128.400,101.245 128.214,101.084 127.600 C 100.951 127.092,101.072 126.800,101.414 126.800 C 102.187 126.800,102.568 126.008,102.045 125.485 C 101.412 124.852,101.494 124.400,102.243 124.400 C 102.730 124.400,102.826 124.156,102.636 123.400 C 102.420 122.542,102.521 122.400,103.343 122.400 C 104.582 122.400,105.517 121.357,104.863 120.703 C 104.032 119.872,104.316 119.091,105.375 119.293 C 106.371 119.484,109.200 117.057,109.200 116.012 C 109.200 115.759,109.361 115.652,109.558 115.774 C 109.755 115.896,110.019 115.726,110.146 115.398 C 110.272 115.069,110.201 114.800,109.987 114.800 C 109.337 114.800,109.555 113.764,110.360 113.036 C 110.858 112.586,111.212 112.495,111.384 112.774 C 111.529 113.008,111.917 113.200,112.247 113.200 C 112.577 113.200,112.736 113.020,112.600 112.800 C 112.464 112.580,112.560 112.400,112.812 112.400 C 113.620 112.400,115.600 110.234,115.600 109.350 C 115.600 108.101,116.671 107.327,117.598 107.906 C 118.172 108.264,118.437 108.237,118.815 107.782 C 119.081 107.462,119.591 107.187,119.949 107.171 C 120.307 107.155,121.140 106.797,121.800 106.375 C 122.460 105.954,123.270 105.498,123.600 105.362 C 124.412 105.027,126.463 104.053,127.200 103.651 C 129.144 102.593,129.720 102.400,130.946 102.400 C 131.726 102.400,132.535 102.117,132.851 101.733 C 133.346 101.132,133.413 101.181,133.536 102.232 C 133.611 102.873,133.812 103.488,133.982 103.599 M166.800 159.730 C 166.800 163.178,166.875 163.531,167.786 164.387 C 168.682 165.229,168.783 165.665,168.886 169.157 C 168.994 172.798,169.047 173.007,169.900 173.128 C 170.734 173.246,170.800 173.458,170.800 176.004 C 170.800 177.516,170.980 178.864,171.200 179.000 C 171.420 179.136,171.600 179.674,171.600 180.195 C 171.600 180.716,171.870 181.413,172.200 181.743 C 172.594 182.137,172.800 183.131,172.800 184.637 C 172.800 186.835,173.790 190.000,174.477 190.000 C 174.655 190.000,174.800 191.249,174.800 192.776 C 174.800 194.303,174.980 195.664,175.200 195.800 C 175.420 195.936,175.600 196.397,175.600 196.824 C 175.600 197.572,175.229 197.600,165.338 197.600 C 155.422 197.600,155.098 197.575,155.738 196.869 C 156.567 195.953,156.602 193.345,155.796 192.539 C 155.046 191.789,155.434 191.063,156.445 191.328 C 157.051 191.486,157.200 191.306,157.200 190.412 C 157.200 189.799,157.470 189.074,157.800 188.800 C 158.593 188.141,158.573 185.436,157.766 184.204 C 157.040 183.097,157.295 182.400,158.424 182.400 C 158.958 182.400,159.204 182.120,159.213 181.500 C 159.220 181.005,159.490 180.251,159.813 179.824 C 160.136 179.396,160.400 178.252,160.400 177.281 C 160.400 175.981,160.664 175.202,161.400 174.327 C 162.585 172.919,162.815 168.892,161.820 166.974 C 161.160 165.701,161.353 165.108,162.374 165.281 C 164.351 165.616,165.319 160.574,163.741 158.165 C 162.863 156.825,163.417 156.369,166.300 156.054 C 166.668 156.014,166.800 156.984,166.800 159.730 M182.870 229.058 C 182.798 229.969,182.933 230.835,183.170 230.981 C 183.406 231.128,183.600 232.124,183.600 233.195 C 183.600 234.393,183.831 235.374,184.200 235.743 C 184.530 236.073,184.800 236.901,184.800 237.584 C 184.800 238.302,185.046 238.919,185.383 239.049 C 185.789 239.205,185.895 239.623,185.734 240.432 C 185.586 241.169,185.738 241.951,186.151 242.581 C 186.524 243.150,186.800 244.395,186.800 245.506 C 186.800 246.570,187.020 247.660,187.289 247.929 C 187.558 248.198,187.727 249.020,187.663 249.755 C 187.595 250.546,187.793 251.336,188.148 251.691 C 188.479 252.021,188.805 253.077,188.874 254.036 C 188.969 255.345,189.214 255.887,189.857 256.206 C 190.617 256.583,190.651 256.716,190.157 257.392 C 189.442 258.370,189.453 258.996,190.200 259.743 C 190.610 260.153,190.800 261.166,190.800 262.948 C 190.800 264.381,190.980 265.664,191.200 265.800 C 191.420 265.936,191.600 266.452,191.600 266.947 C 191.600 267.442,191.864 268.196,192.187 268.624 C 192.523 269.068,192.780 270.289,192.787 271.476 C 192.794 272.618,192.980 273.664,193.200 273.800 C 193.420 273.936,193.600 274.452,193.600 274.947 C 193.600 275.442,193.864 276.196,194.187 276.624 C 194.566 277.124,194.779 278.364,194.787 280.113 C 194.797 282.140,194.951 282.883,195.397 283.054 C 195.788 283.204,195.916 283.595,195.768 284.184 C 195.631 284.730,195.790 285.333,196.171 285.714 C 196.597 286.140,196.800 287.084,196.800 288.637 C 196.800 290.835,197.790 294.000,198.477 294.000 C 198.655 294.000,198.800 295.080,198.800 296.400 L 198.800 298.800 165.600 298.800 L 132.400 298.800 132.400 297.424 C 132.400 296.667,132.580 295.936,132.800 295.800 C 133.391 295.435,133.262 293.516,132.587 292.624 C 131.701 291.452,131.873 291.109,133.200 291.400 L 134.400 291.664 134.400 289.455 C 134.400 288.241,134.580 287.136,134.800 287.000 C 135.452 286.597,135.256 284.730,134.500 284.157 C 133.872 283.680,133.934 283.624,135.100 283.613 L 136.400 283.600 136.400 280.824 C 136.400 279.297,136.580 277.936,136.800 277.800 C 137.020 277.664,137.200 277.045,137.200 276.425 C 137.200 275.805,137.470 275.074,137.800 274.800 C 138.196 274.472,138.400 273.578,138.400 272.175 C 138.400 271.005,138.580 269.936,138.800 269.800 C 139.020 269.664,139.200 269.045,139.200 268.425 C 139.200 267.805,139.470 267.074,139.800 266.800 C 140.217 266.454,140.400 265.533,140.400 263.775 C 140.400 262.385,140.580 261.136,140.800 261.000 C 141.020 260.864,141.206 260.268,141.213 259.676 C 141.220 259.084,141.490 258.251,141.813 257.824 C 142.184 257.333,142.400 256.126,142.400 254.547 C 142.400 253.172,142.580 251.936,142.800 251.800 C 143.020 251.664,143.200 251.045,143.200 250.425 C 143.200 249.805,143.470 249.074,143.800 248.800 C 144.142 248.516,144.400 247.644,144.400 246.775 C 144.400 245.935,144.580 245.136,144.800 245.000 C 145.020 244.864,145.206 244.268,145.213 243.676 C 145.220 243.084,145.490 242.251,145.813 241.824 C 146.138 241.394,146.400 240.198,146.400 239.147 C 146.400 238.102,146.580 237.136,146.800 237.000 C 147.020 236.864,147.200 235.975,147.200 235.025 C 147.200 233.978,147.436 233.102,147.800 232.800 C 148.192 232.475,148.400 231.584,148.400 230.231 C 148.400 227.003,147.336 227.179,166.184 227.296 L 183.000 227.400 182.870 229.058 M228.000 227.592 C 228.000 227.808,228.495 228.092,229.100 228.223 C 230.285 228.481,231.836 229.078,232.800 229.647 C 233.130 229.842,233.760 230.162,234.200 230.359 C 234.640 230.555,235.433 231.094,235.961 231.558 C 236.490 232.021,237.133 232.400,237.391 232.400 C 237.649 232.400,238.283 232.850,238.800 233.400 C 239.317 233.950,239.956 234.400,240.221 234.400 C 240.890 234.400,246.800 240.257,246.800 240.921 C 246.800 241.218,247.250 241.883,247.800 242.400 C 248.350 242.917,248.800 243.582,248.800 243.878 C 248.800 244.174,249.250 245.129,249.800 246.000 C 250.350 246.871,250.800 247.771,250.800 248.000 C 250.800 248.229,251.250 249.129,251.800 250.000 C 252.432 251.001,252.800 252.168,252.800 253.168 C 252.800 254.040,252.980 254.864,253.200 255.000 C 253.441 255.149,253.600 257.930,253.600 262.000 C 253.600 266.070,253.441 268.851,253.200 269.000 C 252.980 269.136,252.800 269.960,252.800 270.832 C 252.800 271.832,252.432 272.999,251.800 274.000 C 251.250 274.871,250.800 275.771,250.800 276.000 C 250.800 276.229,250.350 277.129,249.800 278.000 C 249.250 278.871,248.800 279.826,248.800 280.122 C 248.800 280.418,248.350 281.083,247.800 281.600 C 247.250 282.117,246.800 282.775,246.800 283.062 C 246.800 283.350,245.616 284.769,244.169 286.216 C 241.354 289.031,240.400 289.179,240.400 286.800 C 240.400 286.194,240.130 285.474,239.800 285.200 C 239.402 284.870,239.200 283.974,239.200 282.542 C 239.200 280.625,239.087 280.332,238.197 279.926 C 237.262 279.500,237.238 279.421,237.845 278.751 C 238.527 277.997,238.344 276.000,237.592 276.000 C 237.377 276.000,237.200 274.931,237.200 273.624 C 237.200 272.317,237.020 271.136,236.800 271.000 C 236.580 270.864,236.400 270.065,236.400 269.225 C 236.400 268.356,236.142 267.484,235.800 267.200 C 235.404 266.872,235.200 265.978,235.200 264.575 C 235.200 263.405,235.020 262.336,234.800 262.200 C 234.580 262.064,234.400 261.445,234.400 260.825 C 234.400 260.205,234.130 259.474,233.800 259.200 C 233.402 258.870,233.200 257.974,233.200 256.542 C 233.200 254.625,233.087 254.332,232.197 253.926 C 231.262 253.500,231.238 253.421,231.845 252.751 C 232.527 251.997,232.344 250.000,231.592 250.000 C 231.367 250.000,231.200 248.575,231.200 246.656 C 231.200 243.556,231.127 243.257,230.200 242.561 C 229.260 241.855,229.200 241.590,229.200 238.115 C 229.200 234.489,229.180 234.410,228.100 233.853 C 226.981 233.275,226.554 227.200,227.632 227.200 C 227.834 227.200,228.000 227.377,228.000 227.592 " stroke="none" fill="#fcfc04" fill-rule="evenodd"></path><path id="path1" d="M133.067 103.867 C 132.379 104.555,132.806 105.953,133.654 105.790 C 134.772 105.574,134.809 105.520,134.537 104.483 C 134.313 103.624,133.606 103.328,133.067 103.867 M116.080 108.080 C 115.490 108.670,115.446 110.000,116.017 110.000 C 116.718 110.000,118.102 108.488,117.819 108.031 C 117.467 107.461,116.676 107.484,116.080 108.080 M110.261 113.133 C 109.449 114.030,109.418 114.645,110.171 114.933 C 111.132 115.302,112.243 113.499,111.456 112.847 C 111.052 112.511,110.760 112.581,110.261 113.133 M130.294 114.639 C 129.909 115.024,129.914 116.391,130.300 116.431 C 130.465 116.447,130.915 116.522,131.300 116.595 C 131.685 116.669,132.000 116.585,132.000 116.409 C 132.000 115.808,130.589 114.344,130.294 114.639 M70.028 115.548 C 69.447 116.634,69.472 116.697,70.467 116.645 C 71.537 116.589,71.824 115.884,71.041 115.234 C 70.567 114.841,70.374 114.900,70.028 115.548 M69.067 117.467 C 68.536 117.998,68.817 118.800,69.533 118.800 C 70.549 118.800,70.876 118.374,70.348 117.737 C 69.855 117.144,69.471 117.063,69.067 117.467 M68.157 120.180 C 67.783 120.973,67.823 121.067,68.463 120.899 C 68.868 120.793,69.200 120.468,69.200 120.177 C 69.200 119.239,68.600 119.241,68.157 120.180 M104.400 119.751 C 104.400 120.724,105.427 121.290,105.981 120.622 C 106.249 120.299,106.353 119.847,106.211 119.618 C 105.831 119.003,104.400 119.109,104.400 119.751 M67.049 122.616 C 66.650 123.657,66.754 123.936,67.500 123.826 C 68.270 123.713,68.468 122.356,67.749 122.116 C 67.501 122.034,67.186 122.259,67.049 122.616 M102.636 123.400 C 102.826 124.156,102.730 124.400,102.243 124.400 C 101.449 124.400,101.413 124.947,102.166 125.572 C 102.621 125.949,102.789 125.864,103.019 125.140 C 103.177 124.643,103.552 123.991,103.853 123.690 C 104.679 122.864,104.513 122.400,103.392 122.400 C 102.517 122.400,102.418 122.532,102.636 123.400 M66.007 126.183 C 65.409 127.753,65.499 128.070,66.500 127.928 C 67.587 127.773,67.910 126.355,67.026 125.622 C 66.509 125.192,66.350 125.279,66.007 126.183 M99.606 128.700 C 99.625 129.610,100.401 130.198,100.794 129.600 C 101.384 128.701,101.286 128.400,100.400 128.400 C 99.960 128.400,99.603 128.535,99.606 128.700 M65.067 129.467 C 64.920 129.613,64.803 130.288,64.806 130.967 C 64.811 131.910,64.903 132.059,65.200 131.600 C 65.413 131.270,65.591 131.157,65.594 131.349 C 65.597 131.541,65.866 131.477,66.192 131.207 C 66.631 130.842,66.679 130.521,66.378 129.958 C 65.956 129.171,65.524 129.009,65.067 129.467 M97.600 133.751 C 97.600 134.429,98.576 135.290,98.937 134.930 C 99.531 134.336,99.178 133.200,98.400 133.200 C 97.960 133.200,97.600 133.448,97.600 133.751 M64.007 134.983 C 63.411 136.550,63.492 136.800,64.600 136.800 C 65.764 136.800,66.027 135.253,65.007 134.406 C 64.514 133.997,64.344 134.095,64.007 134.983 M96.400 137.751 C 96.400 138.724,97.427 139.290,97.981 138.622 C 98.249 138.299,98.353 137.847,98.211 137.618 C 97.831 137.003,96.400 137.109,96.400 137.751 M124.176 141.352 C 123.784 142.915,124.214 143.600,125.587 143.600 C 127.116 143.600,127.123 142.939,125.608 141.453 L 124.439 140.306 124.176 141.352 M95.384 143.626 C 95.052 144.163,95.535 146.835,96.085 147.500 C 96.372 147.847,96.355 148.173,96.028 148.566 C 95.118 149.662,95.283 152.583,96.263 152.723 C 97.106 152.843,97.126 152.735,97.126 148.023 C 97.126 143.230,96.541 141.754,95.384 143.626 M122.242 149.835 C 121.743 151.136,121.988 151.600,123.176 151.600 C 124.636 151.600,124.997 151.092,124.091 150.314 C 122.898 149.290,122.491 149.185,122.242 149.835 M163.405 156.792 C 163.122 157.249,163.869 158.800,164.371 158.800 C 164.758 158.800,165.200 157.823,165.200 156.967 C 165.200 156.328,163.778 156.189,163.405 156.792 M96.900 157.407 C 96.172 158.221,96.287 158.800,97.176 158.800 C 98.202 158.800,98.489 158.267,97.887 157.483 C 97.472 156.942,97.326 156.931,96.900 157.407 M63.600 157.574 C 63.600 158.862,64.438 160.066,65.007 159.594 C 66.027 158.747,65.764 157.200,64.600 157.200 C 64.050 157.200,63.600 157.368,63.600 157.574 M120.267 158.667 C 119.595 159.338,120.030 160.400,120.976 160.400 C 122.273 160.400,122.660 159.683,121.740 158.986 C 120.896 158.346,120.642 158.291,120.267 158.667 M97.853 161.542 C 97.128 162.343,97.351 162.800,98.467 162.800 C 98.926 162.800,99.200 162.510,99.200 162.024 C 99.200 160.912,98.612 160.702,97.853 161.542 M64.913 163.400 C 65.008 164.715,66.093 165.099,66.324 163.900 C 66.404 163.486,66.215 163.200,65.863 163.200 C 65.535 163.200,65.167 162.975,65.046 162.700 C 64.925 162.425,64.865 162.740,64.913 163.400 M98.880 164.480 C 98.134 165.226,98.308 165.600,99.400 165.600 C 100.489 165.600,100.515 165.566,100.157 164.633 C 99.867 163.876,99.525 163.835,98.880 164.480 M161.471 165.500 C 161.210 165.943,161.912 167.600,162.360 167.600 C 162.856 167.600,163.329 166.132,163.002 165.604 C 162.711 165.132,161.726 165.065,161.471 165.500 M66.200 167.600 C 65.768 168.300,66.409 168.891,67.036 168.370 C 67.346 168.113,67.600 167.744,67.600 167.551 C 67.600 167.069,66.505 167.107,66.200 167.600 M66.806 170.537 C 66.817 171.350,67.495 172.112,67.955 171.828 C 68.670 171.386,68.468 170.511,67.600 170.284 C 67.139 170.164,66.803 170.271,66.806 170.537 M117.600 170.606 C 117.600 171.300,118.680 172.122,119.182 171.811 C 119.942 171.341,119.616 170.496,118.600 170.302 C 117.969 170.181,117.600 170.294,117.600 170.606 M157.405 182.792 C 157.122 183.249,157.869 184.800,158.371 184.800 C 158.758 184.800,159.200 183.823,159.200 182.967 C 159.200 182.328,157.778 182.189,157.405 182.792 M155.420 191.568 C 155.295 191.770,155.493 192.236,155.860 192.603 C 156.469 193.212,156.560 193.214,156.886 192.632 C 157.490 191.553,156.068 190.520,155.420 191.568 M98.237 253.448 C 97.639 255.006,97.960 255.600,99.400 255.600 C 101.137 255.600,101.228 254.867,99.637 253.691 C 98.639 252.953,98.440 252.918,98.237 253.448 M97.043 259.033 C 96.602 260.181,96.789 260.800,97.576 260.800 C 98.581 260.800,98.786 260.411,98.366 259.300 C 97.969 258.250,97.388 258.133,97.043 259.033 M95.043 267.833 C 94.533 269.162,94.764 269.934,95.606 269.714 C 96.702 269.428,96.918 268.967,96.404 268.008 C 95.885 267.038,95.373 266.972,95.043 267.833 M134.559 284.200 C 135.323 284.778,136.000 284.673,136.000 283.976 C 136.000 283.769,135.505 283.606,134.900 283.613 C 133.858 283.625,133.840 283.656,134.559 284.200 M90.243 288.233 C 89.810 289.362,89.980 289.600,91.219 289.600 L 92.437 289.600 91.719 288.613 C 90.873 287.451,90.572 287.374,90.243 288.233 M132.000 291.511 C 132.000 292.147,133.268 293.605,133.627 293.383 C 134.229 293.011,134.055 291.707,133.367 291.443 C 132.507 291.113,132.000 291.138,132.000 291.511 M89.067 293.867 C 88.379 294.555,88.806 295.953,89.654 295.790 C 90.772 295.574,90.809 295.520,90.537 294.483 C 90.313 293.624,89.606 293.328,89.067 293.867 " stroke="none" fill="#bcbcbc" fill-rule="evenodd"></path></g></svg>