<svg id="svg" xmlns="http://www.w3.org/2000/svg" xmlns:xlink="http://www.w3.org/1999/xlink" width="400" height="400" viewBox="0, 0, 400,400" version="1.1"><g id="svgg"><path id="path0" d="M126.054 70.216 C 125.314 70.537,124.330 70.800,123.867 70.800 C 123.130 70.800,121.195 71.386,118.600 72.396 C 118.160 72.567,116.720 73.039,115.400 73.446 C 114.080 73.852,112.410 74.503,111.688 74.892 C 110.966 75.281,110.164 75.600,109.906 75.600 C 109.150 75.600,103.200 78.493,103.200 78.861 C 103.200 79.045,102.345 79.590,101.300 80.071 C 100.255 80.553,98.928 81.319,98.350 81.773 C 97.773 82.228,96.702 82.960,95.970 83.400 C 95.238 83.840,94.295 84.406,93.875 84.659 C 93.456 84.911,92.234 85.946,91.161 86.959 C 90.088 87.971,89.007 88.800,88.759 88.800 C 88.135 88.800,82.000 94.823,82.000 95.435 C 82.000 95.709,81.022 96.983,79.826 98.268 C 77.423 100.851,75.869 102.880,75.132 104.400 C 74.866 104.950,74.334 105.760,73.951 106.200 C 72.298 108.098,66.716 120.079,66.947 121.233 C 67.072 121.858,67.002 122.475,66.791 122.605 C 66.572 122.741,66.517 122.535,66.663 122.121 C 66.833 121.639,66.785 121.533,66.517 121.800 C 65.980 122.336,64.800 126.112,64.800 127.295 C 64.800 127.815,64.623 128.417,64.406 128.634 C 62.532 130.508,62.491 163.451,64.361 165.321 C 64.603 165.563,64.800 166.408,64.800 167.200 C 64.800 167.992,64.943 168.811,65.118 169.020 C 65.293 169.229,65.764 170.480,66.165 171.800 C 67.123 174.951,73.261 187.301,75.012 189.600 C 75.766 190.590,76.636 191.940,76.947 192.600 C 77.257 193.260,78.521 194.784,79.756 195.986 C 80.990 197.189,82.000 198.363,82.000 198.596 C 82.000 199.103,88.066 205.200,88.570 205.200 C 88.764 205.200,89.874 206.100,91.037 207.200 C 92.200 208.300,93.402 209.200,93.706 209.200 C 94.011 209.200,94.683 209.650,95.200 210.200 C 95.717 210.750,96.347 211.200,96.600 211.200 C 96.853 211.200,97.497 211.668,98.030 212.239 C 98.564 212.810,99.630 213.602,100.400 213.998 C 101.170 214.394,102.511 215.412,103.380 216.259 C 104.250 217.107,105.310 217.980,105.736 218.200 C 106.572 218.632,106.572 218.626,105.960 221.000 C 105.089 224.385,104.676 225.431,103.859 226.325 C 103.190 227.057,102.980 227.895,102.858 230.325 C 102.731 232.841,102.530 233.606,101.751 234.531 C 100.922 235.516,100.800 236.075,100.800 238.873 C 100.800 241.715,100.685 242.221,99.800 243.273 C 98.949 244.284,98.800 244.864,98.800 247.169 C 98.800 248.668,98.550 250.396,98.241 251.039 C 97.512 252.552,97.006 254.404,97.526 253.653 C 98.090 252.840,100.800 253.792,100.800 254.804 C 100.800 255.687,99.375 256.243,98.651 255.643 C 98.288 255.341,97.990 255.361,97.616 255.710 C 97.190 256.108,97.135 256.020,97.323 255.242 C 97.451 254.713,97.404 254.445,97.216 254.642 C 97.030 254.839,96.788 255.810,96.678 256.800 C 96.569 257.790,96.176 259.680,95.805 261.000 C 95.079 263.584,94.368 267.186,94.264 268.800 C 94.229 269.350,94.109 269.890,93.998 270.000 C 93.498 270.495,92.800 273.202,92.800 274.648 C 92.800 275.524,92.646 276.411,92.458 276.620 C 91.784 277.368,90.800 281.185,90.800 283.049 C 90.800 284.169,90.450 285.670,89.947 286.710 C 89.478 287.679,89.019 289.311,88.929 290.336 C 88.762 292.215,88.238 294.493,87.515 296.475 L 87.124 297.550 77.175 297.675 C 64.426 297.835,65.832 296.289,65.678 310.314 C 65.549 322.004,65.657 323.600,66.644 324.587 C 67.350 325.293,236.961 325.544,239.372 324.843 C 240.047 324.646,241.524 324.196,242.654 323.843 C 243.783 323.489,244.942 323.200,245.228 323.200 C 245.514 323.200,246.120 322.866,246.574 322.458 C 247.028 322.050,248.210 321.288,249.200 320.764 C 250.190 320.240,251.509 319.404,252.131 318.906 C 252.753 318.407,253.482 318.000,253.752 318.000 C 254.022 318.000,254.854 317.370,255.600 316.600 C 256.346 315.830,257.156 315.200,257.400 315.200 C 258.221 315.200,270.000 302.590,270.000 301.710 C 270.000 301.489,270.405 300.794,270.900 300.166 C 272.081 298.667,277.200 288.475,277.200 287.622 C 277.200 287.258,277.343 286.789,277.518 286.580 C 277.693 286.371,278.164 285.120,278.564 283.800 C 278.965 282.480,279.462 281.032,279.670 280.583 C 280.657 278.443,280.937 274.320,280.934 262.000 C 280.931 247.103,280.901 246.855,278.140 239.192 C 277.623 237.757,277.200 236.390,277.200 236.153 C 277.200 235.582,271.791 224.981,270.591 223.200 C 268.475 220.061,266.766 218.053,262.000 213.105 C 257.280 208.205,255.526 206.698,252.732 205.137 C 252.079 204.772,251.242 204.207,250.872 203.880 C 249.841 202.968,237.306 196.800,236.485 196.800 C 236.086 196.800,235.589 196.639,235.380 196.442 C 234.917 196.006,231.780 195.237,228.800 194.829 C 227.590 194.663,226.093 194.319,225.474 194.064 C 224.855 193.809,223.400 193.600,222.242 193.600 C 220.446 193.600,220.074 193.467,219.723 192.700 C 218.809 190.704,218.400 188.829,218.400 186.632 C 218.400 185.361,218.144 183.754,217.831 183.060 C 217.518 182.367,217.166 181.170,217.048 180.400 C 216.315 175.618,215.909 173.937,214.749 170.881 C 214.557 170.376,214.400 169.443,214.400 168.807 C 214.400 168.172,214.195 167.145,213.945 166.526 C 213.440 165.274,212.929 162.926,212.434 159.579 C 212.254 158.358,211.920 157.008,211.692 156.579 C 211.464 156.151,211.069 154.990,210.815 154.000 C 210.029 150.948,209.132 147.844,208.758 146.881 C 208.561 146.376,208.400 145.143,208.400 144.142 C 208.400 143.140,208.158 141.754,207.861 141.060 C 206.836 138.660,206.400 136.936,206.400 135.280 C 206.400 134.365,206.156 132.938,205.857 132.108 C 204.759 129.056,204.400 127.719,204.400 126.680 C 204.400 126.095,204.156 124.938,203.857 124.108 C 202.676 120.824,202.400 119.675,202.400 118.032 C 202.400 117.091,202.158 115.754,201.861 115.060 C 200.891 112.789,200.400 110.965,200.400 109.632 C 200.400 108.911,200.144 107.754,199.831 107.060 C 199.518 106.367,199.177 105.170,199.073 104.400 C 198.969 103.630,198.754 102.595,198.595 102.100 L 198.307 101.200 234.131 101.200 L 269.955 101.200 270.577 100.311 C 271.251 99.349,271.538 71.951,270.886 70.925 C 270.064 69.632,268.278 69.600,197.874 69.616 C 136.975 69.629,127.217 69.711,126.054 70.216 M132.133 104.500 C 131.997 105.215,131.641 106.286,131.343 106.880 C 131.044 107.474,130.800 108.876,130.800 109.994 C 130.800 111.146,130.535 112.433,130.188 112.962 C 129.851 113.476,129.536 114.459,129.488 115.147 C 129.440 115.835,129.265 116.399,129.100 116.399 C 128.935 116.400,128.800 117.534,128.800 118.920 C 128.800 120.306,128.646 121.611,128.458 121.820 C 127.840 122.506,126.800 126.318,126.800 127.895 C 126.800 128.745,126.646 129.611,126.458 129.820 C 125.793 130.558,124.800 134.374,124.800 136.189 C 124.800 137.201,124.518 138.459,124.172 138.986 C 123.599 139.861,123.603 140.033,124.223 140.979 C 124.833 141.910,124.836 141.989,124.253 141.765 C 123.896 141.628,123.721 141.327,123.864 141.096 C 124.016 140.851,123.931 140.795,123.661 140.962 C 123.330 141.167,123.317 141.470,123.613 142.024 C 123.863 142.491,123.877 142.800,123.647 142.800 C 123.438 142.800,123.176 142.575,123.065 142.300 C 122.954 142.025,122.849 142.799,122.832 144.020 C 122.814 145.241,122.637 146.411,122.439 146.620 C 121.896 147.191,120.800 151.851,120.800 153.587 C 120.800 154.424,120.534 155.621,120.209 156.248 C 119.884 156.874,119.428 158.380,119.195 159.594 C 118.963 160.807,118.575 162.151,118.333 162.579 C 117.546 163.976,116.477 172.171,117.209 171.200 C 117.611 170.667,117.643 170.667,117.497 171.200 C 117.407 171.530,117.088 171.800,116.789 171.800 C 116.224 171.800,115.342 175.456,114.937 179.481 C 114.601 182.827,113.973 182.941,111.148 180.167 C 109.822 178.865,108.411 177.170,108.011 176.400 C 107.612 175.630,106.886 174.640,106.397 174.200 C 105.527 173.416,100.400 163.642,100.400 162.766 C 100.400 162.521,100.144 161.754,99.831 161.060 C 98.138 157.308,98.138 138.692,99.831 134.940 C 100.144 134.246,100.400 133.497,100.400 133.273 C 100.400 132.431,105.573 122.549,106.410 121.792 C 106.891 121.356,107.609 120.370,108.005 119.600 C 108.790 118.075,115.617 111.200,116.347 111.200 C 116.595 111.200,117.501 110.565,118.360 109.788 C 120.258 108.074,129.772 103.237,131.290 103.216 C 132.306 103.201,132.363 103.289,132.133 104.500 M165.684 161.412 C 165.799 162.800,166.181 164.049,166.709 164.762 C 167.377 165.667,167.579 166.617,167.690 169.398 C 167.812 172.429,167.948 172.991,168.715 173.612 C 169.373 174.145,169.600 174.757,169.600 176.004 C 169.600 176.925,169.842 178.246,170.139 178.940 C 171.174 181.362,171.600 183.070,171.609 184.828 C 171.614 185.803,172.002 187.410,172.471 188.400 C 172.941 189.390,173.455 191.370,173.614 192.800 C 173.773 194.230,174.034 195.715,174.195 196.100 C 174.467 196.754,173.917 196.800,165.813 196.800 L 157.140 196.800 157.245 195.084 C 157.303 194.140,157.197 193.119,157.010 192.816 C 156.752 192.399,156.843 192.331,157.382 192.538 C 157.973 192.765,158.063 192.641,157.906 191.818 C 157.801 191.271,157.834 190.897,157.978 190.986 C 158.416 191.257,159.302 187.677,159.114 186.397 C 159.018 185.739,159.068 185.200,159.227 185.200 C 159.604 185.200,160.820 180.358,161.084 177.804 C 161.218 176.510,161.626 175.410,162.245 174.673 C 163.038 173.731,163.200 173.096,163.200 170.927 C 163.200 168.919,163.438 167.842,164.230 166.265 C 165.077 164.579,165.237 163.770,165.130 161.707 C 164.970 158.612,165.432 158.367,165.684 161.412 M182.000 229.776 C 182.000 230.533,182.180 231.264,182.400 231.400 C 182.620 231.536,182.803 232.402,182.806 233.324 C 182.811 234.858,183.469 237.386,184.386 239.400 C 184.586 239.840,184.843 240.830,184.956 241.600 C 185.503 245.333,185.954 247.601,186.239 248.063 C 186.411 248.342,186.688 249.297,186.853 250.185 C 187.524 253.789,188.003 255.657,188.475 256.506 C 188.748 256.998,189.010 257.850,189.057 258.400 C 189.319 261.464,189.950 265.530,190.298 266.400 C 191.108 268.426,191.600 270.284,191.600 271.320 C 191.600 271.905,191.844 273.062,192.143 273.892 C 193.324 277.176,193.600 278.325,193.600 279.968 C 193.600 280.909,193.852 282.246,194.160 282.940 C 195.192 285.258,195.600 286.905,195.604 288.760 C 195.606 289.874,196.001 291.444,196.604 292.740 C 197.152 293.917,197.600 295.492,197.600 296.240 L 197.600 297.600 165.400 297.600 C 147.690 297.600,133.200 297.508,133.200 297.395 C 133.200 297.282,133.367 296.877,133.571 296.495 C 134.377 294.986,135.200 291.549,135.200 289.692 C 135.200 288.615,135.328 287.605,135.485 287.448 C 136.235 286.698,137.199 283.166,137.200 281.167 C 137.200 279.938,137.316 278.817,137.459 278.675 C 138.042 278.091,139.175 274.089,139.187 272.567 C 139.194 271.668,139.316 270.817,139.459 270.675 C 140.134 269.999,141.175 265.966,141.187 263.980 C 141.194 262.759,141.354 261.589,141.542 261.380 C 142.224 260.622,143.200 256.804,143.200 254.892 C 143.200 253.815,143.316 252.817,143.459 252.675 C 143.964 252.170,145.174 248.181,145.187 246.980 C 145.194 246.309,145.354 245.589,145.542 245.380 C 146.160 244.694,147.200 240.882,147.200 239.305 C 147.200 238.455,147.378 237.582,147.596 237.364 C 148.055 236.905,148.790 233.810,149.061 231.200 C 149.163 230.210,149.321 229.175,149.411 228.900 C 149.539 228.511,153.171 228.400,165.787 228.400 L 182.000 228.400 182.000 229.776 M232.136 230.399 C 233.533 231.059,235.001 231.959,235.399 232.399 C 235.798 232.840,236.295 233.200,236.504 233.200 C 236.713 233.200,237.419 233.650,238.073 234.200 C 238.727 234.750,239.487 235.200,239.763 235.200 C 240.371 235.200,245.457 240.531,246.666 242.436 C 248.354 245.094,251.600 251.957,251.602 252.872 C 251.604 253.382,251.874 254.316,252.202 254.946 C 252.654 255.811,252.800 257.537,252.800 262.000 C 252.800 266.463,252.654 268.189,252.202 269.054 C 251.874 269.684,251.604 270.695,251.602 271.300 C 251.596 274.235,243.408 287.200,241.560 287.200 C 241.285 287.200,241.044 286.206,240.425 282.523 C 240.232 281.380,239.934 280.217,239.761 279.937 C 239.424 279.391,238.965 277.181,238.424 273.492 C 238.238 272.223,237.906 270.963,237.688 270.692 C 237.469 270.422,237.189 269.480,237.065 268.600 C 236.435 264.111,235.930 261.992,234.749 258.881 C 234.557 258.376,234.400 257.443,234.400 256.807 C 234.400 256.172,234.195 255.145,233.945 254.526 C 233.337 253.021,232.842 250.509,232.344 246.400 C 232.057 244.032,231.699 242.749,231.166 242.174 C 230.562 241.523,230.400 240.752,230.400 238.534 C 230.400 235.211,229.837 233.329,228.738 232.980 C 228.241 232.823,228.028 232.504,228.171 232.131 C 228.297 231.803,228.400 231.009,228.400 230.367 C 228.400 228.875,228.919 228.879,232.136 230.399 " stroke="none" fill="#fcfcfc" fill-rule="evenodd"></path><path id="path1" d="" stroke="none" fill="#949494" fill-rule="evenodd"></path><path id="path2" d="M97.879 253.500 C 97.307 254.519,97.180 256.115,97.704 255.679 C 98.100 255.351,98.382 255.342,98.689 255.649 C 99.309 256.269,100.800 255.677,100.800 254.812 C 100.800 254.349,100.336 253.916,99.540 253.639 C 98.043 253.117,98.091 253.121,97.879 253.500 " stroke="none" fill="#d4d4d4" fill-rule="evenodd"></path></g></svg>